DBRep_DrawableShape

CASCADE Topology V1, (c) Matra-Datavision
Locations 19
1
              1               0               0               0 
              0               1               0               0 
              0               0               1               0 
1
              1               0               0               0 
              0               1               0               0 
              0               0               1               0 
1
              1               0               0               0 
              0               1               0               0 
              0               0               1               0 
2  2 1 3 1 0
1
              1               0               0               0 
              0               1               0               0 
              0               0               1               0 
1
              1               0               0               0 
              0               1               0               0 
              0               0               1               0 
2  5 1 6 1 0
2  6 -1 5 -1 0
1
              1               0               0               0 
              0               1               0               0 
              0               0               1               0 
1
              1               0               0               0 
              0               1               0               0 
              0               0               1               0 
2  9 1 10 1 0
2  10 -1 9 -1 0
2  5 1 6 1 2 1 3 1 0
2  3 -1 2 -1 6 -1 5 -1 0
1
              1               0               0               0 
              0               1               0               0 
              0               0               1               0 
1
              1               0               0               3 
              0               1               0               0 
              0               0               1               6 
2  15 1 16 1 0
2  16 -1 15 -1 0
2  9 1 10 1 2 1 3 1 0
Curve2ds 56
1 0 0 1 0 
1 0 0 1 0 
1 10 0 0 -1 
1 0 0 0 1 
1 0 -5 1 0 
1 0 0 1 0 
1 5 0 0 -1 
1 0 0 0 1 
1 0 0 0 1 
1 0 0 1 0 
1 0 0 1 0 
1 0 10 1 0 
1 10 0 0 1 
1 0 0 1 0 
1 0 0 1 0 
1 0 5 1 0 
1 0 0 0 1 
1 0 0 1 0 
1 0 0 1 0 
1 0 0 1 0 
1 5 0 0 1 
1 0 0 1 0 
1 0 0 1 0 
1 0 5 1 0 
1 10 0 0 1 
1 0 5 1 0 
8 0 5
1 3 0 0 1 
8 0 5
1 4 0 0 -1 
1 0 0 0 1 
1 0 5 1 0 
1 0 -5 1 0 
1 0 10 1 0 
1 0 -5 1 0 
1 0 5 1 0 
1 0 0 0 1 
1 0 5 1 0 
1 0 -5 1 0 
1 0 0 1 0 
1 5 0 0 1 
1 0 5 1 0 
1 0 -5 1 0 
1 0 5 1 0 
1 5 0 0 -1 
1 5 0 0 1 
1 0 0 0 -1 
1 5 0 0 1 
1 0 0 0 -1 
1 10 0 0 1 
1 10 0 0 -1 
1 10 0 0 1 
8 0 5
1 8 0 0 1 
8 0 5
1 4 0 0 -1 
1 0 0 0 -1 
1 5 0 0 1 
1 0 0 0 -1 
1 0 0 0 1 
Curves 28
1 0 0 0 0 0 1 
1 0 0 10 -0 1 0 
1 0 5 0 0 0 1 
1 0 0 5 -0 1 0 
1 0 0 0 1 0 -0 
1 10 0 0 0 0 1 
1 0 0 10 1 0 -0 
1 5 0 0 0 0 1 
1 0 0 0 1 0 -0 
1 0 0 0 0 0 1 
1 0 0 5 1 0 -0 
1 5 0 0 0 0 1 
1 0 5 10 1 0 -0 
1 3 0 10 0 1 0 
1 0 5 0 1 0 -0 
1 10 5 0 0 0 1 
1 5 5 0 0 0 1 
1 0 5 0 1 0 -0 
1 0 5 0 0 0 1 
1 0 5 5 1 0 -0 
1 5 5 0 0 0 1 
1 5 0 5 -0 1 0 
1 5 0 0 -0 1 0 
1 10 0 0 -0 1 0 
1 10 0 10 -0 1 0 
1 8 0 10 0 1 0 
1 5 0 0 -0 1 0 
1 0 0 0 -0 1 0 
Polygon3D 0
PolygonOnTriangulations 0
Surfaces 17
1 0 0 0 1 0 -0 0 0 1 0 -1 0 
1 0 0 0 -0 1 0 0 0 1 1 0 -0 
1 0 0 10 0 0 1 1 0 -0 -0 1 0 
1 0 5 0 -0 1 0 0 0 1 1 0 -0 
1 0 0 0 1 0 -0 0 0 1 0 -1 0 
1 0 0 5 0 0 1 1 0 -0 -0 1 0 
1 0 0 0 0 0 1 1 0 -0 -0 1 0 
1 10 0 0 1 0 -0 0 0 1 0 -1 0 
1 5 0 0 1 0 -0 0 0 1 0 -1 0 
1 0 0 0 -0 1 0 0 0 1 1 0 -0 
1 0 0 0 0 0 1 1 0 -0 -0 1 0 
1 0 0 0 1 0 -0 0 0 1 0 -1 0 
1 0 0 0 -0 1 0 0 0 1 1 0 -0 
1 5 0 0 1 0 -0 0 0 1 0 -1 0 
1 0 5 0 -0 1 0 0 0 1 1 0 -0 
1 0 5 0 -0 1 0 0 0 1 1 0 -0 
1 0 0 0 0 0 1 1 0 -0 -0 1 0 
Triangulations 0

TShapes 78
Ve
1e-07
0 0 5
0 0

0101101
*
Ve
1e-07
0 0 10
0 0

0101101
*
Ed
 1e-07 1 1 0
1  1 0 5 10
2  1 1 0 5 10
2  2 2 0 5 10
0

0101000
+78 8 -77 0 *
Ve
1e-07
0 5 10
0 0

0101101
*
Ed
 1e-07 1 1 0
1  2 0 0 5
2  3 1 0 0 5
2  4 3 0 0 5
0

0101000
-75 0 +77 0 *
Ve
1e-07
0 5 5
0 0

0101101
*
Ed
 1e-07 1 1 0
1  3 0 5 10
2  5 1 0 5 10
2  6 4 0 5 10
0

0101000
+73 8 -75 0 *
Ed
 1e-07 1 1 0
1  4 0 0 5
2  7 5 0 0 5
2  8 6 0 0 5
0

0101000
+78 12 -73 12 *
Wi

0101100
-76 7 -74 7 +72 7 +71 11 *
Fa
0  1e-07 1 7

0101000
+70 0 *
Ve
1e-07
5 0 0
0 0

0101101
*
Ve
1e-07
10 0 0
0 0

0101101
*
Ed
 1e-07 1 1 0
1  5 0 5 10
2  9 2 0 5 10
2  10 7 0 5 10
0

0101000
+68 8 -67 0 *
Ve
1e-07
10 0 10
0 0

0101101
*
Ed
 1e-07 1 1 0
1  6 0 0 10
2  11 8 0 0 10
2  12 2 0 0 10
0

0101000
-65 0 +67 0 *
Ve
7.94219373644901e-06
8 0 10
0 0

0101101
*
Ed
 1e-07 1 1 0
1  7 0 8 10
2  13 2 0 8 10
2  14 3 0 8 10
0

0101000
+63 14 -65 0 *
Ve
1e-07
8 0 6
0 0

0101101
*
Ed
 1e-07 1 1 0
1  8 0 0 4
2  15 9 0 0 4
2  16 10 0 0 4
0

0101000
+61 18 -63 18 *
Ve
1e-07
3 0 6
0 0

0101101
*
Ed
 1e-07 1 1 0
1  9 0 0 5
2  17 10 0 0 5
2  18 11 0 0 5
0

0101000
+59 18 -61 18 *
Ve
7.94219373644901e-06
3 0 10
0 0

0101101
*
Ed
 1e-07 1 1 0
1  10 0 0 4
2  19 12 0 0 4
2  20 10 0 0 4
0

0101000
+59 18 -57 18 *
Ed
 1e-07 1 1 0
1  7 0 0 3
2  13 2 0 0 3
2  14 3 0 0 3
0

0101000
+77 0 -57 14 *
Ve
1e-07
5 0 5
0 0

0101101
*
Ed
 1e-07 1 1 0
1  11 0 0 5
2  21 13 0 0 5
2  22 6 0 0 5
0

0101000
+78 12 -54 12 *
Ed
 1e-07 1 1 0
1  12 0 0 5
2  23 14 0 0 5
2  24 13 0 0 5
0

0101000
+68 12 -54 12 *
Wi

0101100
-66 13 -64 13 +62 13 +60 17 +58 17 -56 17 +55 13 +76 13 -53 19 +52 19 
*
Fa
0  1e-07 2 13

0101000
+51 0 *
Ve
7.94219373644901e-06
3 5 10
0 0

0101101
*
Ed
 1e-07 1 1 0
1  13 0 0 3
2  25 4 0 0 3
2  26 3 0 0 3
0

0101000
+75 0 -49 14 *
Ed
 7.94219373644901e-06 1 1 0
1  14 0 0 5
2  27 3 13 0 5
2  28 12 17 0 5
0

0101000
+57 0 -49 0 *
Wi

0101100
-48 13 +47 0 +55 13 -74 13 *
Fa
0  1e-07 3 13

0101000
+46 0 *
Ve
1e-07
5 5 0
0 0

0101101
*
Ve
1e-07
10 5 0
0 0

0101101
*
Ed
 1e-07 1 1 0
1  15 0 5 10
2  29 4 0 5 10
2  30 7 0 5 10
0

0101000
+44 8 -43 0 *
Ve
1e-07
10 5 10
0 0

0101101
*
Ed
 1e-07 1 1 0
1  16 0 0 10
2  31 8 0 0 10
2  32 4 0 0 10
0

0101000
-41 0 +43 0 *
Ve
7.94219373644901e-06
8 5 10
0 0

0101101
*
Ed
 1e-07 1 1 0
1  13 0 8 10
2  25 4 0 8 10
2  26 3 0 8 10
0

0101000
+39 14 -41 0 *
Ve
1e-07
8 5 6
0 0

0101101
*
Ed
 1e-07 1 1 0
1  17 0 0 4
2  33 9 0 0 4
2  34 15 0 0 4
0

0101000
+37 18 -39 18 *
Ve
1e-07
3 5 6
0 0

0101101
*
Ed
 1e-07 1 1 0
1  18 0 0 5
2  35 15 0 0 5
2  36 11 0 0 5
0

0101000
+35 18 -37 18 *
Ed
 1e-07 1 1 0
1  19 0 0 4
2  37 12 0 0 4
2  38 15 0 0 4
0

0101000
+35 18 -49 18 *
Ve
1e-07
5 5 5
0 0

0101101
*
Ed
 1e-07 1 1 0
1  20 0 0 5
2  39 16 0 0 5
2  40 6 0 0 5
0

0101000
+73 12 -32 12 *
Ed
 1e-07 1 1 0
1  21 0 0 5
2  41 14 0 0 5
2  42 16 0 0 5
0

0101000
+44 12 -32 12 *
Wi

0101100
-42 13 -40 13 +38 13 +36 17 +34 17 -33 17 +48 13 +72 13 -31 19 +30 19 
*
Fa
0  1e-07 4 13

0101000
+29 0 *
Ed
 1e-07 1 1 0
1  22 0 0 5
2  43 14 0 0 5
2  44 6 0 0 5
0

0101000
+54 12 -32 12 *
Wi

0101100
-71 11 -31 11 +27 11 +53 11 *
Fa
0  1e-07 6 11

0101000
+26 0 *
Ed
 1e-07 1 1 0
1  23 0 0 5
2  45 14 0 0 5
2  46 17 0 0 5
0

0101000
+68 12 -44 12 *
Ed
 1e-07 1 1 0
1  24 0 0 5
2  47 8 0 0 5
2  48 7 0 0 5
0

0101000
-43 0 +67 0 *
Wi

0101100
-24 11 -42 7 +23 7 +66 7 *
Fa
0  1e-07 7 7

0101000
+22 0 *
Ed
 1e-07 1 1 0
1  25 0 0 5
2  49 8 0 0 5
2  50 3 0 0 5
0

0101000
-41 0 +65 0 *
Wi

0101100
-64 0 -20 0 +40 0 +23 0 *
Fa
0  1e-07 8 0

0101000
+19 0 *
Ed
 7.94219373644901e-06 1 1 0
1  26 0 0 5
2  51 3 13 0 5
2  52 9 17 0 5
0

0101000
+63 0 -39 0 *
Wi

0101100
-38 13 +20 13 +62 13 -17 0 *
Fa
0  1e-07 3 13

0101000
+16 0 *
Ed
 1e-07 1 1 0
1  27 0 0 5
2  53 9 0 0 5
2  54 11 0 0 5
0

0101000
+61 18 -37 18 *
Wi

0101100
-60 17 -17 0 +36 17 +14 17 *
Fa
0  1e-07 9 17

0101000
+13 0 *
Ed
 1e-07 1 1 0
1  28 0 0 5
2  55 12 0 0 5
2  56 11 0 0 5
0

0101000
+59 18 -35 18 *
Wi

0101100
-11 17 -34 17 +14 17 +58 17 *
Fa
0  1e-07 11 17

0101000
+10 0 *
Wi

0101100
-56 17 -47 0 +33 17 +11 17 *
Fa
0  1e-07 12 17

0101000
+8 0 *
Wi

0101100
-52 11 -27 11 +30 11 +24 11 *
Fa
0  1e-07 14 11

0101000
+6 0 *
Sh

0101100
-69 4 -50 0 +45 0 +28 0 -25 4 -21 4 +18 13 +15 0 -12 0 +9 0 
+7 0 -5 4 *
So

0100000
+4 0 *
Co

0100000
+3 0 *
Co

1100000
+2 1 *

+1 0 